# This file uses centimeters as units for non-parametric coordinates.

mtllib gutter_export.mtl
g default
v -5.957749 -0.451254 -0.191341
v -5.956646 -0.342869 -0.353553
v -5.954996 -0.180659 -0.461940
v -5.954996 -0.180658 0.461940
v -5.956646 -0.342869 0.353553
v -5.957749 -0.451254 0.191342
v -5.958137 -0.489314 0.000000
v 5.948350 -0.472617 -0.191341
v 5.949451 -0.364232 -0.353553
v 5.951101 -0.202022 -0.461940
v 5.951101 -0.202022 0.461940
v 5.949451 -0.364232 0.353553
v 5.948350 -0.472617 0.191342
v 5.947964 -0.510677 0.000000
v -5.953051 0.010681 -0.500000
v 5.953051 -0.010682 -0.500000
v -5.953051 0.010682 0.500000
v 5.953051 -0.010682 0.500000
vt 0.375000 0.312500
vt 0.390625 0.312500
vt 0.406250 0.312500
vt 0.421875 0.312500
vt 0.562500 0.312500
vt 0.578125 0.312500
vt 0.593750 0.312500
vt 0.609375 0.312500
vt 0.625000 0.312500
vt 0.375000 0.687500
vt 0.390625 0.687500
vt 0.406250 0.687500
vt 0.546875 0.687500
vt 0.562500 0.687500
vt 0.578125 0.687500
vt 0.593750 0.687500
vt 0.609375 0.687500
vt 0.625000 0.687500
vt 0.421875 0.687500
vt 0.546875 0.312500
vn 0.001658 0.924030 0.382317
vn 0.001657 0.923725 0.383052
vn 0.001268 0.706584 0.707628
vn 0.001270 0.707624 0.706588
vn 0.000685 0.381792 0.924248
vn 0.000688 0.383569 0.923512
vn 0.000350 0.195089 0.980786
vn 0.000350 0.195089 0.980786
vn 0.000350 0.195088 -0.980786
vn 0.000350 0.195088 -0.980786
vn 0.000685 0.381791 -0.924248
vn 0.000688 0.383568 -0.923512
vn 0.001268 0.706583 -0.707629
vn 0.001270 0.707624 -0.706589
vn 0.001657 0.923725 -0.383053
vn 0.001658 0.924030 -0.382317
vn 0.001794 0.999998 -0.000000
vn 0.001794 0.999998 -0.000000
s 1
g pCylinder1
usemtl initialShadingGroup
f 1/1/1 8/10/2 9/11/3 2/2/4
f 2/2/4 9/11/3 10/12/5 3/3/6
f 3/3/6 10/12/5 16/19/7 15/4/8
f 17/20/9 18/13/10 11/14/11 4/5/12
f 4/5/12 11/14/11 12/15/13 5/6/14
f 5/6/14 12/15/13 13/16/15 6/7/16
f 6/7/16 13/16/15 14/17/17 7/8/18
f 7/8/18 14/17/17 8/18/2 1/9/1
